<svg xmlns="http://www.w3.org/2000/svg" xmlns:xlink="http://www.w3.org/1999/xlink" width="58" height="191" viewBox="0 0 58 191"><svg width="31" height="28" viewBox="-5 -5 31 28" id="camera" y="0"><title>Camera</title><defs><path id="a" d="M0 .514h20.117V14.87H0z"></path></defs><g fill="none" fill-rule="evenodd"><g transform="translate(0 2.74)"><mask id="b" fill="#fff"><use xlink:href="#a"></use></mask><path d="M18.161 12.913H1.957V2.471H18.16v10.442h.001zM19.14.514H.98A.979.979 0 0 0 0 1.492v12.4c0 .54.438.978.978.978h18.16c.54 0 .979-.439.979-.979V1.492a.977.977 0 0 0-.978-.978z" fill="#7CDD36" mask="url(#b)"></path></g><path d="M5.945 1.957h8.475a.979.979 0 0 0 0-1.957H5.945a.979.979 0 0 0 0 1.957M10.182 8.383c1.13 0 2.05.92 2.05 2.048 0 1.13-.92 2.048-2.05 2.048a2.05 2.05 0 0 1-2.048-2.048c0-1.129.918-2.048 2.048-2.048m0 6.053a4.01 4.01 0 0 0 4.006-4.005 4.01 4.01 0 0 0-4.006-4.005 4.01 4.01 0 0 0-4.005 4.005 4.01 4.01 0 0 0 4.005 4.005" fill="#7CDD36"></path></g></svg><svg width="58" height="41" viewBox="-5 -5 58 41" id="card" y="28"><title>Card</title><g stroke="#7CDD36" stroke-width="2" fill="none" fill-rule="evenodd"><path d="M1 1h46v29H1z"></path><path d="M9 9h9v13H9z"></path><path d="M26.406 10h12.215M26.406 16h12.215M26.406 21h12.215" stroke-linecap="square"></path></g></svg><svg width="35" height="36" viewBox="-5 -5 35 36" id="para-icon" y="69"><title>Group 2</title><g fill="none" fill-rule="evenodd"><ellipse fill="#7CDD36" cx="12.32" cy="12.571" rx="12.32" ry="12.571"></ellipse><path d="M7.581 8.703h7.582M7.581 16.44h7.582M7.581 12.571h11.372" stroke="#000" stroke-width="1.5" stroke-linecap="square"></path></g></svg><svg width="44" height="43" viewBox="-5 -5 44 43" id="star" y="105"><title>Starburst</title><defs><path id="a" d="M0 0h34v33H0z"></path></defs><g fill="none" fill-rule="evenodd"><mask id="b" fill="#fff"><use xlink:href="#a"></use></mask><path d="M16.977 33c-.233 0-.372-.136-.465-.318l-2.139-7.82-6.136 5.41c-.14.136-.372.136-.558.045-.186-.09-.232-.318-.186-.5l2.51-7.684-8.135 1.319c-.185.045-.418-.091-.51-.273a.428.428 0 0 1 .139-.546l6.368-5.183-7.577-3.183c-.186-.09-.325-.273-.279-.5.046-.227.186-.364.418-.364l8.182-1L3.96 5.719a.407.407 0 0 1 .047-.545.503.503 0 0 1 .558-.091l7.438 3.5L11.817.49c0-.227.14-.409.325-.454.186-.046.418.045.511.182l4.324 6.91L21.3.219c.093-.182.325-.273.511-.182.186.045.326.227.326.454l-.186 8.094 7.438-3.501a.503.503 0 0 1 .558.09c.14.137.14.364.046.546l-4.602 6.684 8.182 1c.186.046.372.182.418.364.046.182-.093.41-.279.5l-7.577 3.183 6.368 5.183c.14.137.233.364.14.546-.093.182-.28.318-.511.273l-8.182-1.319 2.51 7.684c.047.182 0 .41-.186.5-.186.091-.418.091-.558-.045l-6.136-5.41-2.138 7.82c-.093.182-.233.318-.465.318" fill="#7CDD36" mask="url(#b)"></path></g></svg><svg width="44" height="43" viewBox="-5 -5 44 43" id="starburst" y="148"><title>Fill 1</title><path d="M16.512 32.682l-2.139-7.82-6.136 5.41c-.14.136-.372.136-.558.045-.186-.09-.232-.318-.186-.5l2.51-7.684-8.135 1.319c-.185.045-.418-.091-.51-.273a.428.428 0 0 1 .139-.546l6.368-5.183-7.577-3.183c-.186-.09-.325-.273-.279-.5.046-.227.186-.364.418-.364l8.182-1L3.96 5.719a.407.407 0 0 1 .047-.545.503.503 0 0 1 .558-.091l7.438 3.5L11.817.49c0-.227.14-.409.325-.454.186-.046.418.045.511.182l4.324 6.91L21.3.219c.093-.182.325-.273.511-.182.186.045.326.227.326.454l-.186 8.094 7.438-3.501a.503.503 0 0 1 .558.09c.14.137.14.364.046.546l-4.602 6.684 8.182 1c.186.046.372.182.418.364.046.182-.093.41-.279.5l-7.577 3.183 6.368 5.183c.14.137.233.364.14.546-.093.182-.28.318-.511.273l-8.182-1.319 2.51 7.684c.047.182 0 .41-.186.5-.186.091-.418.091-.558-.045l-6.136-5.41-2.138 7.82c-.093.182-.233.318-.465.318-.233 0-.372-.136-.465-.318z" fill="#7CDD36" fill-rule="evenodd"></path></svg></svg>