<?xml version="1.0" encoding="UTF-8"?>
<svg width="21px" height="18px" viewBox="0 0 21 18" version="1.1" xmlns="http://www.w3.org/2000/svg" xmlns:xlink="http://www.w3.org/1999/xlink">
    <!-- Generator: Sketch 49.3 (51167) - http://www.bohemiancoding.com/sketch -->
    <title>Camera</title>
    <desc>Created with Sketch.</desc>
    <defs>
        <polygon id="path-1" points="0 0.514173913 20.1169565 0.514173913 20.1169565 14.8695652 0 14.8695652"></polygon>
    </defs>
    <g id="Page-1" stroke="none" stroke-width="1" fill="none" fill-rule="evenodd">
        <g id="Home" transform="translate(-940.000000, -5190.000000)">
            <g id="Events" transform="translate(-1.000000, 4755.000000)">
                <g id="Group-7" transform="translate(721.000000, 223.000000)">
                    <g id="Camera" transform="translate(220.000000, 212.000000)">
                        <g id="Group-3" transform="translate(0.000000, 2.739130)">
                            <mask id="mask-2" fill="white">
                                <use xlink:href="#path-1"></use>
                            </mask>
                            <g id="Clip-2"></g>
                            <path d="M18.1612174,12.9130435 L1.95652174,12.9130435 L1.95652174,2.47069565 L18.1604348,2.47069565 L18.1604348,12.9130435 L18.1612174,12.9130435 Z M19.1394783,0.514173913 L0.97826087,0.514173913 C0.43826087,0.514173913 0,0.952434783 0,1.49243478 L0,13.8913043 C0,14.4313043 0.43826087,14.8695652 0.97826087,14.8695652 L19.1386957,14.8695652 C19.6786957,14.8695652 20.1169565,14.4313043 20.1169565,13.8913043 L20.1169565,1.49243478 C20.1177391,0.952434783 19.6794783,0.514173913 19.1394783,0.514173913 Z" id="Fill-1" fill="#7CDD36" mask="url(#mask-2)"></path>
                        </g>
                        <path d="M5.94469565,1.95652174 L14.4203478,1.95652174 C14.9603478,1.95652174 15.3986087,1.51826087 15.3986087,0.97826087 C15.3986087,0.43826087 14.9603478,0 14.4203478,0 L5.94469565,0 C5.40469565,0 4.96643478,0.43826087 4.96643478,0.97826087 C4.96643478,1.51826087 5.40469565,1.95652174 5.94469565,1.95652174" id="Fill-4" fill="#7CDD36"></path>
                        <path d="M10.1817391,8.38252174 C11.3118261,8.38252174 12.2313913,9.30208696 12.2313913,10.4313913 C12.2313913,11.5606957 11.3118261,12.4794783 10.1817391,12.4794783 C9.05243478,12.4794783 8.13365217,11.5606957 8.13365217,10.4313913 C8.13365217,9.30208696 9.05243478,8.38252174 10.1817391,8.38252174 M10.1817391,14.436 C12.3902609,14.436 14.187913,12.6391304 14.187913,10.4313913 C14.187913,8.22286957 12.3902609,6.426 10.1817391,6.426 C7.974,6.426 6.17713043,8.22286957 6.17713043,10.4313913 C6.17713043,12.6391304 7.974,14.436 10.1817391,14.436" id="Fill-6" fill="#7CDD36"></path>
                    </g>
                </g>
            </g>
        </g>
    </g>
</svg>