<?xml version="1.0" encoding="UTF-8"?>
<svg width="34px" height="33px" viewBox="0 0 34 33" version="1.1" xmlns="http://www.w3.org/2000/svg" xmlns:xlink="http://www.w3.org/1999/xlink">
    <!-- Generator: Sketch 49.3 (51167) - http://www.bohemiancoding.com/sketch -->
    <title>Starburst</title>
    <desc>Created with Sketch.</desc>
    <defs>
        <polygon id="path-1" points="0 0 34 0 34 33 0 33"></polygon>
    </defs>
    <g id="Symbols" stroke="none" stroke-width="1" fill="none" fill-rule="evenodd">
        <g id="Nav" transform="translate(-1104.000000, -38.000000)">
            <g id="Starburst">
                <g transform="translate(1104.000000, 38.000000)">
                    <mask id="mask-2" fill="white">
                        <use xlink:href="#path-1"></use>
                    </mask>
                    <g id="Clip-2"></g>
                    <path d="M16.9767565,33 C16.7443216,33 16.6048607,32.8635959 16.5118867,32.6817238 L14.3734858,24.8612217 L8.23720481,30.2719179 C8.09774388,30.408322 7.865309,30.408322 7.67936109,30.3173859 C7.49341318,30.2264499 7.4469262,29.9991097 7.49341318,29.8172376 L10.0037099,22.1331396 L1.86848895,23.4517127 C1.68254104,23.4971807 1.45010615,23.3607766 1.3571322,23.1789045 C1.26415825,22.9970323 1.31064522,22.7696921 1.49659313,22.633288 L7.865309,17.449932 L0.287931727,14.2671696 C0.101983818,14.1762335 -0.0374771131,13.9943614 0.00900986398,13.7670212 C0.0554968411,13.539681 0.194957772,13.4032769 0.427392658,13.4032769 L8.60910063,12.4029802 L3.96040292,5.71917903 C3.82094199,5.53730689 3.86742896,5.30996672 4.0068899,5.17356261 C4.14635083,5.03715851 4.37878571,4.99169047 4.56473362,5.08262654 L12.00265,8.58366523 L11.8167021,0.49035501 C11.8167021,0.263014836 11.956163,0.0811426958 12.1421109,0.0356746608 C12.3280588,-0.00979337411 12.5604937,0.0811426958 12.6534676,0.217546801 L16.9767565,7.12868811 L21.3000454,0.217546801 C21.3930193,0.0356746608 21.6254542,-0.0552614091 21.8114021,0.0356746608 C21.99735,0.0811426958 22.136811,0.263014836 22.136811,0.49035501 L21.9508631,8.58366523 L29.3887794,5.08262654 C29.5747273,4.99169047 29.8071622,5.03715851 29.9466231,5.17356261 C30.0860841,5.30996672 30.0860841,5.53730689 29.9931101,5.71917903 L25.3908994,12.4029802 L33.5726073,13.4032769 C33.7585553,13.448745 33.9445032,13.5851491 33.9909901,13.7670212 C34.0374771,13.9488934 33.8980162,14.1762335 33.7120683,14.2671696 L26.134691,17.449932 L32.5034069,22.633288 C32.6428678,22.7696921 32.7358418,22.9970323 32.6428678,23.1789045 C32.5498938,23.3607766 32.3639459,23.4971807 32.1315111,23.4517127 L23.9498031,22.1331396 L26.4600998,29.8172376 C26.5065868,29.9991097 26.4600998,30.2264499 26.2741519,30.3173859 C26.088204,30.408322 25.8557691,30.408322 25.7163082,30.2719179 L19.5800272,24.8612217 L17.4416263,32.6817238 C17.3486523,32.8635959 17.2091914,33 16.9767565,33" id="Fill-1" fill="#7CDD36" mask="url(#mask-2)"></path>
                </g>
            </g>
        </g>
    </g>
</svg>